<svg width="22" height="22" viewBox="0 0 22 22" fill="none" xmlns="http://www.w3.org/2000/svg">
<path d="M7.70688 20.1267H4.17513C2.41801 20.1267 1.57004 19.3137 1.57004 17.6353V3.82299C1.57004 2.14454 2.42675 1.33154 4.17513 1.33154H7.70688C9.46401 1.33154 10.312 2.14454 10.312 3.82299V17.6353C10.312 19.3137 9.45526 20.1267 7.70688 20.1267ZM4.17513 2.64283C3.06491 2.64283 2.88133 2.94006 2.88133 3.82299V17.6353C2.88133 18.5182 3.06491 18.8154 4.17513 18.8154H7.70688C8.8171 18.8154 9.00068 18.5182 9.00068 17.6353V3.82299C9.00068 2.94006 8.8171 2.64283 7.70688 2.64283H4.17513Z" fill="#7B7B7B"/>
<path d="M17.7601 12.259H14.2284C12.4712 12.259 11.6233 11.446 11.6233 9.76751V3.82299C11.6233 2.14454 12.48 1.33154 14.2284 1.33154H17.7601C19.5172 1.33154 20.3652 2.14454 20.3652 3.82299V9.76751C20.3652 11.446 19.5085 12.259 17.7601 12.259ZM14.2284 2.64283C13.1181 2.64283 12.9346 2.94006 12.9346 3.82299V9.76751C12.9346 10.6504 13.1181 10.9477 14.2284 10.9477H17.7601C18.8703 10.9477 19.0539 10.6504 19.0539 9.76751V3.82299C19.0539 2.94006 18.8703 2.64283 17.7601 2.64283H14.2284Z" fill="#7B7B7B"/>
<path d="M17.7601 20.1268H14.2284C12.4712 20.1268 11.6233 19.3138 11.6233 17.6353V16.0618C11.6233 14.3833 12.48 13.5703 14.2284 13.5703H17.7601C19.5172 13.5703 20.3652 14.3833 20.3652 16.0618V17.6353C20.3652 19.3138 19.5085 20.1268 17.7601 20.1268ZM14.2284 14.8816C13.1181 14.8816 12.9346 15.1788 12.9346 16.0618V17.6353C12.9346 18.5182 13.1181 18.8155 14.2284 18.8155H17.7601C18.8703 18.8155 19.0539 18.5182 19.0539 17.6353V16.0618C19.0539 15.1788 18.8703 14.8816 17.7601 14.8816H14.2284Z" fill="#7B7B7B"/>
</svg>
