<svg width="22" height="22" viewBox="0 0 22 22" fill="none" xmlns="http://www.w3.org/2000/svg">
<path d="M2.22556 2.43164H3.74666C4.69079 2.43164 5.43385 3.24464 5.35517 4.18003L4.62959 12.887C4.5072 14.3119 5.6349 15.5358 7.06858 15.5358H16.3787C17.6376 15.5358 18.7391 14.5043 18.8352 13.2542L19.3073 6.69771C19.4122 5.24654 18.3107 4.06638 16.8508 4.06638H5.56498" stroke="#7B7B7B" stroke-width="1.31129" stroke-miterlimit="10" stroke-linecap="round" stroke-linejoin="round"/>
<path d="M14.6828 19.9155C15.2864 19.9155 15.7756 19.4263 15.7756 18.8227C15.7756 18.2192 15.2864 17.73 14.6828 17.73C14.0793 17.73 13.5901 18.2192 13.5901 18.8227C13.5901 19.4263 14.0793 19.9155 14.6828 19.9155Z" stroke="#7B7B7B" stroke-width="1.31129" stroke-miterlimit="10" stroke-linecap="round" stroke-linejoin="round"/>
<path d="M7.68927 19.9155C8.29278 19.9155 8.78201 19.4263 8.78201 18.8227C8.78201 18.2192 8.29278 17.73 7.68927 17.73C7.08576 17.73 6.59653 18.2192 6.59653 18.8227C6.59653 19.4263 7.08576 19.9155 7.68927 19.9155Z" stroke="#7B7B7B" stroke-width="1.31129" stroke-miterlimit="10" stroke-linecap="round" stroke-linejoin="round"/>
<path d="M8.34491 7.67676H18.8352" stroke="#7B7B7B" stroke-width="1.31129" stroke-miterlimit="10" stroke-linecap="round" stroke-linejoin="round"/>
</svg>
