<svg width="20" height="20" viewBox="0 0 20 20" fill="none" xmlns="http://www.w3.org/2000/svg">
<path d="M9.99934 11.0834C9.89101 11.0834 9.78267 11.0584 9.68267 11.0001L2.32431 6.74175C2.02431 6.56675 1.92429 6.18339 2.09929 5.88339C2.27429 5.58339 2.64929 5.48337 2.95762 5.65837L9.99934 9.73341L16.9993 5.6834C17.2993 5.5084 17.6826 5.61675 17.8576 5.90841C18.0326 6.20841 17.9243 6.59172 17.6327 6.76672L10.3243 11.0001C10.216 11.0501 10.1077 11.0834 9.99934 11.0834Z" fill="#7B7B7B"/>
<path d="M9.99988 18.6335C9.65821 18.6335 9.37488 18.3502 9.37488 18.0085V10.4502C9.37488 10.1085 9.65821 9.8252 9.99988 9.8252C10.3415 9.8252 10.6249 10.1085 10.6249 10.4502V18.0085C10.6249 18.3502 10.3415 18.6335 9.99988 18.6335Z" fill="#7B7B7B"/>
<path d="M10.0004 18.9587C9.26705 18.9587 8.54205 18.8003 7.96706 18.4837L3.51706 16.0087C2.30872 15.342 1.36707 13.7337 1.36707 12.3503V7.64198C1.36707 6.25864 2.30872 4.65868 3.51706 3.98368L7.96706 1.51699C9.10872 0.883659 10.892 0.883659 12.0337 1.51699L16.4837 3.99197C17.692 4.65863 18.6337 6.26698 18.6337 7.65032V12.3587C18.6337 13.742 17.692 15.342 16.4837 16.017L12.0337 18.4837C11.4587 18.8003 10.7337 18.9587 10.0004 18.9587ZM10.0004 2.29198C9.47538 2.29198 8.95872 2.40033 8.57538 2.60866L4.1254 5.08363C3.3254 5.53363 2.61707 6.72532 2.61707 7.65032V12.3587C2.61707 13.2753 3.3254 14.4753 4.1254 14.9253L8.57538 17.4003C9.33372 17.8253 10.667 17.8253 11.4254 17.4003L15.8754 14.9253C16.6754 14.4753 17.3837 13.2837 17.3837 12.3587V7.65032C17.3837 6.73365 16.6754 5.53363 15.8754 5.08363L11.4254 2.60866C11.042 2.40033 10.5254 2.29198 10.0004 2.29198Z" fill="#7B7B7B"/>
<path d="M14.1675 11.6584C13.8258 11.6584 13.5425 11.3751 13.5425 11.0334V8.35016L5.94247 3.9668C5.64247 3.7918 5.54245 3.40845 5.71745 3.11679C5.89245 2.81679 6.26747 2.71677 6.56747 2.89177L14.4758 7.45847C14.6675 7.5668 14.7925 7.7751 14.7925 8.0001V11.0502C14.7925 11.3752 14.5092 11.6584 14.1675 11.6584Z" fill="#7B7B7B"/>
</svg>
