<svg width="10" height="6" viewBox="0 0 10 6" fill="none" xmlns="http://www.w3.org/2000/svg">
<path d="M1.16997 5.7912C1.00567 5.7912 0.841362 5.73067 0.711647 5.60095C0.460864 5.35017 0.460864 4.93508 0.711647 4.6843L3.47888 1.91704C3.61725 1.77867 3.79885 1.70949 3.99775 1.72679C4.18799 1.74408 4.36095 1.84785 4.47337 2.01216L5.41597 3.43038L8.4859 0.360451C8.73668 0.109667 9.15177 0.109667 9.40255 0.360451C9.65334 0.611234 9.65334 1.02632 9.40255 1.27711L5.77052 4.90914C5.63216 5.0475 5.45056 5.11668 5.25166 5.09939C5.06141 5.08209 4.88846 4.97832 4.77604 4.81401L3.83344 3.39579L1.6283 5.60095C1.49859 5.73067 1.33428 5.7912 1.16997 5.7912Z" fill="#79AF24"/>
<path d="M8.95197 3.1971C8.59741 3.1971 8.30339 2.90308 8.30339 2.54853V1.46756H7.22243C6.86787 1.46756 6.57385 1.17354 6.57385 0.818987C6.57385 0.464432 6.86787 0.17041 7.22243 0.17041H8.95197C9.30652 0.17041 9.60055 0.464432 9.60055 0.818987V2.54853C9.60055 2.90308 9.30652 3.1971 8.95197 3.1971Z" fill="#79AF24"/>
</svg>
