<svg width="10" height="7" viewBox="0 0 10 7" fill="none" xmlns="http://www.w3.org/2000/svg">
<path d="M1.17644 0.97971C1.01049 0.97971 0.844543 1.04085 0.713529 1.17186C0.460236 1.42516 0.460236 1.8444 0.713529 2.09769L3.50846 4.89265C3.64821 5.0324 3.83163 5.10227 4.03252 5.08481C4.22467 5.06734 4.39935 4.96253 4.5129 4.79658L5.46493 3.36416L8.56559 6.46482C8.81888 6.71811 9.23812 6.71811 9.49142 6.46482C9.74471 6.21152 9.74471 5.79228 9.49142 5.53899L5.82304 1.8706C5.68329 1.73086 5.49987 1.66098 5.29898 1.67845C5.10683 1.69592 4.93214 1.80073 4.8186 1.96668L3.86656 3.3991L1.63936 1.17186C1.50835 1.04085 1.34239 0.97971 1.17644 0.97971Z" fill="#F71324"/>
<path d="M9.03644 3.60073C8.67833 3.60073 8.38137 3.89769 8.38137 4.2558V5.34758H7.28959C6.93149 5.34758 6.63452 5.64454 6.63452 6.00265C6.63452 6.36075 6.93149 6.65771 7.28959 6.65771H9.03644C9.39454 6.65771 9.69151 6.36075 9.69151 6.00265V4.2558C9.69151 3.89769 9.39454 3.60073 9.03644 3.60073Z" fill="#F71324"/>
</svg>
