<svg width="15" height="15" viewBox="0 0 15 15" fill="none" xmlns="http://www.w3.org/2000/svg">
<path d="M12.8544 2.77846V4.12192C12.8544 4.61045 12.549 5.22112 12.2437 5.52645L9.61784 7.84698C9.25144 8.15231 9.00718 8.76298 9.00718 9.25151V11.8774C9.00718 12.2438 8.76291 12.7323 8.45758 12.9155L7.60265 13.4651C6.80878 13.9536 5.70959 13.404 5.70959 12.427V9.19044C5.70959 8.76298 5.46532 8.21338 5.22105 7.90804L4.93404 7.60882C4.74474 7.4073 4.7081 7.10197 4.86076 6.86381L7.98737 1.84414C8.09729 1.66705 8.2927 1.55713 8.50643 1.55713H11.633C12.3048 1.55713 12.8544 2.10673 12.8544 2.77846Z" fill="#59595A"/>
<path d="M6.59507 2.49145L4.42721 5.96613C4.21959 6.302 3.74327 6.35085 3.46847 6.06384L2.90055 5.46538C2.59522 5.16005 2.35095 4.61045 2.35095 4.24405V2.83953C2.35095 2.10673 2.90055 1.55713 3.57228 1.55713H6.07601C6.55233 1.55713 6.84545 2.0823 6.59507 2.49145Z" fill="#59595A"/>
</svg>
