<svg width="19" height="19" viewBox="0 0 19 19" fill="none" xmlns="http://www.w3.org/2000/svg">
<path d="M17.316 10.0222V11.6301C17.316 12.0672 16.9569 12.4263 16.512 12.4263H15.0056C14.1626 12.4263 13.3899 11.8096 13.3196 10.9667C13.2728 10.4749 13.4601 10.0144 13.7879 9.69439C14.0767 9.39779 14.4748 9.22607 14.9119 9.22607H16.512C16.9569 9.22607 17.316 9.58512 17.316 10.0222Z" fill="#07A8E5"/>
<path d="M12.1489 11.0681C12.0786 10.2486 12.3752 9.44462 12.9684 8.85922C13.468 8.35188 14.1626 8.05527 14.9119 8.05527H15.3568C15.5754 8.05527 15.7549 7.87575 15.7237 7.6572C15.513 6.14297 14.2017 4.97217 12.6328 4.97217H4.82745C3.10248 4.97217 1.70532 6.36932 1.70532 8.0943V13.558C1.70532 15.283 3.10248 16.6802 4.82745 16.6802H12.6328C14.2095 16.6802 15.513 15.5094 15.7237 13.9951C15.7549 13.7766 15.5754 13.5971 15.3568 13.5971H15.0056C13.5226 13.5971 12.2737 12.4887 12.1489 11.0681ZM10.2912 9.46023H5.60799C5.28797 9.46023 5.02259 9.20266 5.02259 8.87483C5.02259 8.54701 5.28797 8.28943 5.60799 8.28943H10.2912C10.6112 8.28943 10.8766 8.55481 10.8766 8.87483C10.8766 9.19485 10.6112 9.46023 10.2912 9.46023Z" fill="#07A8E5"/>
<path d="M11.2357 3.27849C11.4387 3.48923 11.2592 3.80144 10.9625 3.80144H4.85098C4.00019 3.80144 3.20405 4.05121 2.5406 4.48051C2.23619 4.67564 1.82251 4.4649 1.97081 4.12927C2.40791 3.10677 3.4304 2.39648 4.60901 2.39648H8.99561C9.90102 2.39648 10.705 2.7165 11.2357 3.27849Z" fill="#07A8E5"/>
</svg>
