<svg width="18" height="18" viewBox="0 0 18 18" fill="none" xmlns="http://www.w3.org/2000/svg">
<path d="M14.7958 7.01303C14.3077 6.47388 13.5718 6.1606 12.5518 6.05131V5.49759C12.5518 4.49944 12.1292 3.53772 11.3861 2.86743C10.6357 2.18257 9.65936 1.86199 8.64664 1.95671C6.90537 2.12428 5.44093 3.80729 5.44093 5.62874V6.05131C4.42093 6.1606 3.68506 6.47388 3.19692 7.01303C2.4902 7.79986 2.51205 8.84902 2.5922 9.57759L3.1022 13.6358C3.2552 15.0565 3.83078 16.5136 6.96366 16.5136H11.0291C14.162 16.5136 14.7375 15.0565 14.8905 13.6431L15.4005 9.57031C15.4807 8.84902 15.5025 7.79986 14.7958 7.01303ZM8.74864 2.96943C9.47721 2.90386 10.1694 3.12972 10.7085 3.61786C11.2404 4.09872 11.5391 4.78359 11.5391 5.49759V6.0076H6.45366V5.62874C6.45366 4.33187 7.52466 3.086 8.74864 2.96943ZM8.99635 14.0219C7.47366 14.0219 6.23508 12.7833 6.23508 11.2606C6.23508 9.73788 7.47366 8.4993 8.99635 8.4993C10.5191 8.4993 11.7577 9.73788 11.7577 11.2606C11.7577 12.7833 10.5191 14.0219 8.99635 14.0219Z" fill="#07A8E5"/>
<path d="M8.5801 12.6098C8.44167 12.6098 8.30324 12.5588 8.19396 12.4495L7.47267 11.7282C7.26139 11.5169 7.26139 11.1672 7.47267 10.9559C7.68395 10.7446 8.03367 10.7446 8.24496 10.9559L8.59468 11.3056L9.7604 10.2273C9.97897 10.0233 10.3287 10.0379 10.5327 10.2565C10.7367 10.475 10.7221 10.8248 10.5035 11.0288L8.95168 12.4641C8.84239 12.5588 8.71125 12.6098 8.5801 12.6098Z" fill="#07A8E5"/>
</svg>
