<svg width="17" height="17" viewBox="0 0 17 17" fill="none" xmlns="http://www.w3.org/2000/svg">
<path fill-rule="evenodd" clip-rule="evenodd" d="M6.1667 3.05013C5.47667 3.05013 4.8149 3.32425 4.32697 3.81217C3.83904 4.3001 3.56493 4.96187 3.56493 5.65191C3.56493 6.34194 3.83904 7.00371 4.32697 7.49164C4.8149 7.97957 5.47667 8.25368 6.1667 8.25368C6.85674 8.25368 7.51851 7.97957 8.00644 7.49164C8.49437 7.00371 8.76848 6.34194 8.76848 5.65191C8.76848 4.96187 8.49437 4.3001 8.00644 3.81217C7.51851 3.32425 6.85674 3.05013 6.1667 3.05013ZM4.86581 8.90413C4.17578 8.90413 3.51401 9.17824 3.02608 9.66617C2.53815 10.1541 2.26404 10.8159 2.26404 11.5059V12.1564C2.26404 12.5014 2.4011 12.8323 2.64506 13.0762C2.88902 13.3202 3.21991 13.4572 3.56493 13.4572H8.76848C9.1135 13.4572 9.44438 13.3202 9.68835 13.0762C9.93231 12.8323 10.0694 12.5014 10.0694 12.1564V11.5059C10.0694 10.8159 9.79525 10.1541 9.30733 9.66617C8.8194 9.17824 8.15763 8.90413 7.46759 8.90413H4.86581ZM9.58154 7.54145C9.89245 6.98207 10.0694 6.33813 10.0694 5.65191C10.0703 4.99059 9.90237 4.33999 9.58154 3.76172C9.95087 3.41225 10.4145 3.17867 10.9151 3.08983C11.4158 3.00099 11.9315 3.06079 12.3985 3.26184C12.8655 3.46289 13.2634 3.79638 13.543 4.22109C13.8225 4.6458 13.9715 5.14312 13.9715 5.65158C13.9715 6.16004 13.8225 6.65736 13.543 7.08207C13.2634 7.50678 12.8655 7.84027 12.3985 8.04133C11.9315 8.24238 11.4158 8.30218 10.9151 8.21334C10.4145 8.1245 9.95087 7.89091 9.58154 7.54145ZM11.0229 13.4572C11.2441 13.0748 11.3709 12.6305 11.3709 12.1564V11.5059C11.3722 10.5457 11.0182 9.61892 10.377 8.90413H12.6711C13.3612 8.90413 14.023 9.17824 14.5109 9.66617C14.9988 10.1541 15.2729 10.8159 15.2729 11.5059V12.1564C15.2729 12.5014 15.1359 12.8323 14.8919 13.0762C14.6479 13.3202 14.3171 13.4572 13.972 13.4572H11.0229Z" fill="#07A8E5"/>
</svg>
