<svg width="20" height="20" viewBox="0 0 20 20" fill="none" xmlns="http://www.w3.org/2000/svg">
<path d="M9.68321 2.61184L7.80212 6.99063H5.92104C5.60882 6.99063 5.30442 7.01405 5.00781 7.07649L5.78835 5.20321L5.81957 5.13297L5.8664 5.00808C5.88982 4.95344 5.90543 4.90661 5.92884 4.86758C6.83426 2.76795 7.84895 2.1123 9.68321 2.61184Z" fill="#07A8E5"/>
<path d="M14.9831 7.20157L14.9675 7.19377C14.4991 7.06108 14.023 6.99083 13.5391 6.99083H8.65295L10.4092 2.90864L10.4326 2.854C10.5418 2.89303 10.6589 2.94767 10.776 2.98669L12.501 3.71259C13.461 4.11066 14.1323 4.52434 14.546 5.02389C14.6162 5.11755 14.6787 5.20341 14.7411 5.30488C14.8114 5.41415 14.866 5.52343 14.8972 5.64051C14.9284 5.71076 14.9519 5.7732 14.9675 5.84345C15.0845 6.24152 15.0924 6.69423 14.9831 7.20157Z" fill="#07A8E5"/>
<path d="M10.136 14.6714H10.3311C10.5653 14.6714 10.7604 14.4607 10.7604 14.2031C10.7604 13.8753 10.6667 13.8284 10.4638 13.7504L10.136 13.6333V14.6714Z" fill="#07A8E5"/>
<path d="M14.6396 8.31773C14.2884 8.21626 13.9215 8.16162 13.5391 8.16162H5.92106C5.3903 8.16162 4.89076 8.26309 4.42244 8.46603C3.06431 9.05143 2.11206 10.4018 2.11206 11.9706V13.4927C2.11206 13.68 2.12767 13.8595 2.15109 14.0468C2.3228 16.5289 3.64971 17.8558 6.13181 18.0198C6.31133 18.0432 6.49085 18.0588 6.68598 18.0588H12.7741C15.6621 18.0588 17.1842 16.685 17.3325 13.9532C17.3403 13.8049 17.3481 13.6488 17.3481 13.4927V11.9706C17.3481 10.2456 16.2007 8.79385 14.6396 8.31773ZM10.7291 12.9853C11.0882 13.1102 11.5721 13.3756 11.5721 14.2029C11.5721 14.9132 11.0179 15.483 10.3311 15.483H10.1359V15.6547C10.1359 15.8811 9.95642 16.0606 9.73006 16.0606C9.50371 16.0606 9.32419 15.8811 9.32419 15.6547V15.483H9.25394C8.50463 15.483 7.88801 14.8508 7.88801 14.0703C7.88801 13.8439 8.06753 13.6644 8.29388 13.6644C8.52024 13.6644 8.69976 13.8439 8.69976 14.0703C8.69976 14.3981 8.94953 14.6713 9.25394 14.6713H9.32419V13.3522L8.73098 13.1414C8.37194 13.0165 7.88801 12.7512 7.88801 11.9238C7.88801 11.2135 8.44218 10.6437 9.12905 10.6437H9.32419V10.472C9.32419 10.2456 9.50371 10.0661 9.73006 10.0661C9.95642 10.0661 10.1359 10.2456 10.1359 10.472V10.6437H10.2062C10.9555 10.6437 11.5721 11.2759 11.5721 12.0565C11.5721 12.2828 11.3926 12.4624 11.1662 12.4624C10.9399 12.4624 10.7604 12.2828 10.7604 12.0565C10.7604 11.7287 10.5106 11.4555 10.2062 11.4555H10.1359V12.7746L10.7291 12.9853Z" fill="#07A8E5"/>
<path d="M8.69983 11.9239C8.69983 12.2517 8.79349 12.2985 8.99643 12.3766L9.32425 12.4937V11.4556H9.12912C8.88716 11.4556 8.69983 11.6663 8.69983 11.9239Z" fill="#07A8E5"/>
</svg>
