<svg width="20" height="20" viewBox="0 0 20 20" fill="none" xmlns="http://www.w3.org/2000/svg">
<path d="M7.63363 9.68317C7.60863 9.68317 7.59196 9.68317 7.56696 9.68317C7.52529 9.67484 7.46696 9.67484 7.41696 9.68317C5.00029 9.60817 3.17529 7.70817 3.17529 5.3665C3.17529 2.98317 5.11696 1.0415 7.50029 1.0415C9.88359 1.0415 11.8253 2.98317 11.8253 5.3665C11.8169 7.70817 9.98359 9.60817 7.65863 9.68317C7.65029 9.68317 7.64196 9.68317 7.63363 9.68317ZM7.50029 2.2915C5.80863 2.2915 4.42529 3.67484 4.42529 5.3665C4.42529 7.03317 5.72529 8.37484 7.38363 8.43317C7.43363 8.42484 7.54196 8.42484 7.65029 8.43317C9.28359 8.35817 10.5669 7.0165 10.5753 5.3665C10.5753 3.67484 9.19192 2.2915 7.50029 2.2915Z" fill="#7B7B7B"/>
<path d="M13.7835 9.79134C13.7585 9.79134 13.7335 9.79134 13.7085 9.78301C13.3668 9.81634 13.0168 9.57467 12.9835 9.23301C12.9501 8.89134 13.1585 8.58301 13.5001 8.54134C13.6001 8.53301 13.7085 8.53301 13.8001 8.53301C15.0168 8.46634 15.9668 7.46634 15.9668 6.24134C15.9668 4.97467 14.9418 3.94967 13.6751 3.94967C13.3335 3.95801 13.0501 3.67467 13.0501 3.33301C13.0501 2.99134 13.3335 2.70801 13.6751 2.70801C15.6251 2.70801 17.2168 4.29967 17.2168 6.24967C17.2168 8.16634 15.7168 9.71634 13.8085 9.79134C13.8001 9.79134 13.7918 9.79134 13.7835 9.79134Z" fill="#7B7B7B"/>
<path d="M7.64122 18.7913C6.00789 18.7913 4.36622 18.3747 3.12455 17.5413C1.96622 16.7747 1.33289 15.7247 1.33289 14.583C1.33289 13.4413 1.96622 12.383 3.12455 11.608C5.62455 9.94967 9.67454 9.94967 12.1579 11.608C13.3079 12.3747 13.9495 13.4247 13.9495 14.5663C13.9495 15.708 13.3162 16.7663 12.1579 17.5413C10.9079 18.3747 9.27454 18.7913 7.64122 18.7913ZM3.81622 12.658C3.01622 13.1913 2.58289 13.8747 2.58289 14.5913C2.58289 15.2997 3.02455 15.983 3.81622 16.508C5.89122 17.8997 9.39121 17.8997 11.4662 16.508C12.2662 15.9747 12.6995 15.2913 12.6995 14.5747C12.6995 13.8663 12.2579 13.183 11.4662 12.658C9.39121 11.2747 5.89122 11.2747 3.81622 12.658Z" fill="#7B7B7B"/>
<path d="M15.2833 17.2917C14.9917 17.2917 14.7333 17.0917 14.675 16.7917C14.6083 16.45 14.825 16.125 15.1583 16.05C15.6833 15.9417 16.1667 15.7333 16.5417 15.4417C17.0167 15.0833 17.275 14.6333 17.275 14.1583C17.275 13.6833 17.0167 13.2333 16.55 12.8833C16.1833 12.6 15.725 12.4 15.1833 12.275C14.85 12.2 14.6333 11.8667 14.7083 11.525C14.7833 11.1917 15.1167 10.975 15.4583 11.05C16.175 11.2083 16.8 11.4917 17.3083 11.8833C18.0833 12.4667 18.525 13.2917 18.525 14.1583C18.525 15.025 18.075 15.85 17.3 16.4417C16.7833 16.8417 16.1333 17.1333 15.4167 17.275C15.3667 17.2917 15.325 17.2917 15.2833 17.2917Z" fill="#7B7B7B"/>
</svg>
